<svg width="20" height="28" viewBox="0 0 20 28" xmlns="http://www.w3.org/2000/svg">
  <!-- Exact recreation of the reference pushpin image -->
  
  <!-- Row 1 -->
  <rect x="6" y="0" width="2" height="2" fill="#993F3F"/>
  <rect x="8" y="0" width="4" height="2" fill="#993F3F"/>
  <rect x="12" y="0" width="2" height="2" fill="#993F3F"/>
  
  <!-- Row 2 -->
  <rect x="4" y="2" width="2" height="2" fill="#993F3F"/>
  <rect x="6" y="2" width="2" height="2" fill="#FF9F9F"/>
  <rect x="8" y="2" width="4" height="2" fill="#FF6B6B"/>
  <rect x="12" y="2" width="2" height="2" fill="#FF6B6B"/>
  <rect x="14" y="2" width="2" height="2" fill="#993F3F"/>
  
  <!-- Row 3 -->
  <rect x="2" y="4" width="2" height="2" fill="#993F3F"/>
  <rect x="4" y="4" width="2" height="2" fill="#FF9F9F"/>
  <rect x="6" y="4" width="2" height="2" fill="#FF9F9F"/>
  <rect x="8" y="4" width="4" height="2" fill="#FF6B6B"/>
  <rect x="12" y="4" width="2" height="2" fill="#FF6B6B"/>
  <rect x="14" y="4" width="2" height="2" fill="#993F3F"/>
  <rect x="16" y="4" width="2" height="2" fill="#993F3F"/>
  
  <!-- Row 4 -->
  <rect x="2" y="6" width="2" height="2" fill="#993F3F"/>
  <rect x="4" y="6" width="2" height="2" fill="#FF9F9F"/>
  <rect x="6" y="6" width="2" height="2" fill="#FF9F9F"/>
  <rect x="8" y="6" width="4" height="2" fill="#FF6B6B"/>
  <rect x="12" y="6" width="2" height="2" fill="#FF6B6B"/>
  <rect x="14" y="6" width="2" height="2" fill="#993F3F"/>
  <rect x="16" y="6" width="2" height="2" fill="#993F3F"/>
  
  <!-- Row 5 -->
  <rect x="2" y="8" width="2" height="2" fill="#993F3F"/>
  <rect x="4" y="8" width="2" height="2" fill="#FF6B6B"/>
  <rect x="6" y="8" width="2" height="2" fill="#FF6B6B"/>
  <rect x="8" y="8" width="4" height="2" fill="#FF6B6B"/>
  <rect x="12" y="8" width="2" height="2" fill="#993F3F"/>
  <rect x="14" y="8" width="2" height="2" fill="#993F3F"/>
  <rect x="16" y="8" width="2" height="2" fill="#993F3F"/>
  
  <!-- Row 6 (body start) -->
  <rect x="4" y="10" width="2" height="2" fill="#993F3F"/>
  <rect x="6" y="10" width="2" height="2" fill="#FF6B6B"/>
  <rect x="8" y="10" width="4" height="2" fill="#FF6B6B"/>
  <rect x="12" y="10" width="2" height="2" fill="#993F3F"/>
  <rect x="14" y="10" width="2" height="2" fill="#993F3F"/>
  
  <!-- Row 7 -->
  <rect x="4" y="12" width="2" height="2" fill="#993F3F"/>
  <rect x="6" y="12" width="2" height="2" fill="#993F3F"/>
  <rect x="8" y="12" width="2" height="2" fill="#FF6B6B"/>
  <rect x="10" y="12" width="2" height="2" fill="#993F3F"/>
  <rect x="12" y="12" width="2" height="2" fill="#993F3F"/>
  
  <!-- Row 8 (narrow part) -->
  <rect x="6" y="14" width="2" height="2" fill="#993F3F"/>
  <rect x="8" y="14" width="2" height="2" fill="#993F3F"/>
  <rect x="10" y="14" width="2" height="2" fill="#993F3F"/>
  
  <!-- Needle part -->
  <rect x="8" y="16" width="2" height="2" fill="#C0C0C0"/>
  <rect x="8" y="18" width="2" height="2" fill="#A0A0A0"/>
  <rect x="8" y="20" width="2" height="2" fill="#808080"/>
  <rect x="8" y="22" width="2" height="2" fill="#606060"/>
  <rect x="8" y="24" width="2" height="2" fill="#404040"/>
  <rect x="8" y="26" width="2" height="2" fill="#202020"/>
</svg>
